<?xml version="1.0" encoding="UTF-8"?>
<!DOCTYPE svg PUBLIC "-//W3C//DTD SVG 1.1//EN" "http://www.w3.org/Graphics/SVG/1.1/DTD/svg11.dtd">
<!-- Creator: CorelDRAW 2021 (64-Bit) -->
<svg xmlns="http://www.w3.org/2000/svg" xml:space="preserve" width="42.3332mm" height="12.7mm" version="1.1" style="shape-rendering:geometricPrecision; text-rendering:geometricPrecision; image-rendering:optimizeQuality; fill-rule:evenodd; clip-rule:evenodd"
viewBox="0 0 4233.32 1270"
 xmlns:xlink="http://www.w3.org/1999/xlink"
 xmlns:xodm="http://www.corel.com/coreldraw/odm/2003">
 <defs>
  <style type="text/css">
   <![CDATA[
    .fil0 {fill:#373435;fill-rule:nonzero}
   ]]>
  </style>
 </defs>
 <g id="Capa_x0020_1">
  <metadata id="CorelCorpID_0Corel-Layer"/>
  <path class="fil0" d="M1154.06 692.74c-31.4,0 -47.63,-12.7 -49.39,-38.1l-47.62 0c1.41,52.21 33.51,78.67 97.01,78.67 60.68,0 92.43,-23.29 95.25,-70.21 1.41,-30.33 -11.29,-50.09 -38.1,-59.26 -20.11,-7.06 -39.16,-12.35 -57.15,-16.58 -31.4,-7.06 -46.57,-17.99 -46.57,-33.16 1.06,-18.35 13.76,-27.87 39.16,-28.23 20.82,0 35.28,6.71 43.39,20.46 4.59,9.18 11.64,14.12 21.88,14.12l27.51 0c-2.82,-49.75 -32.1,-74.44 -88.55,-74.44 -59.26,-0.35 -89.25,24.34 -90.31,74.79 0,31.75 23.29,53.62 70.21,65.62 17.28,4.58 33.51,8.81 47.62,13.05 14.82,4.23 21.87,11.99 21.87,23.63 0.36,19.76 -14.81,29.64 -46.21,29.64l0 0zm202.49 -152.4c-56.44,0 -84.66,32.1 -84.66,97.01 0,64.21 28.22,96.66 84.66,96.66 56.45,0 85.02,-32.45 85.02,-96.66 0,-64.91 -28.57,-97.01 -85.02,-97.01zm0 41.27c23.99,0 35.99,17.99 35.99,54.33 -0.36,37.04 -12.35,56.09 -36.34,56.09 -23.99,0 -36.34,-18.34 -36.69,-54.68 0,-37.04 12.35,-55.74 37.04,-55.74zm131.94 -91.72l-24.34 0 0 239.89 46.92 0 0 -216.96c0,-12.35 -10.23,-22.93 -22.58,-22.93zm114.65 205.32c-14.81,0 -22.57,-7.06 -23.63,-21.87 0,-13.76 9.52,-22.58 28.22,-26.11 13.76,-2.82 26.46,-6.7 37.4,-11.29l0 17.29c0,26.46 -15.88,41.98 -41.99,41.98zm10.94 -116.42c19.4,0 29.28,5.29 30.34,15.88 0,10.23 -10.23,16.22 -30.34,18.69 -47.27,4.59 -79.73,16.58 -80.79,61.39 0,41.27 31.05,62.09 75.85,58.56 50.45,-3.53 81.49,-26.46 81.49,-77.97l0 -63.5c-1.05,-34.57 -27.16,-51.5 -78.67,-51.5 -43.04,0 -67.38,16.93 -73.02,51.5l46.92 0c2.47,-8.82 11.64,-13.05 28.22,-13.05zm99.13 150.99l47.62 0 0 -97.01c0,-27.17 13.06,-40.93 39.16,-40.93l15.88 0 0 -48.68 -6.71 0c-62.44,0 -94.54,29.99 -95.95,90.31l0 96.31zm218.37 -239.89l-69.15 0c-16.58,0.35 -24.69,9.17 -24.69,25.75l0 214.14 80.78 0c21.88,0 38.81,-1.76 50.8,-4.94 46.22,-12.35 71.62,-56.09 71.62,-115.01 0,-76.55 -33.16,-119.94 -109.36,-119.94zm59.26 119.94c0,50.45 -16.93,76.56 -65.61,76.56l-39.16 0 0 -154.52 45.51 0c44.45,0 59.26,29.99 59.26,77.96zm269.18 46.92c0,-31.75 -13.76,-47.27 -37.4,-56.44 18.7,-9.17 28.93,-24.34 28.93,-49.74 0,-42.69 -29.99,-60.68 -75.14,-60.68l-88.2 0c-13.76,0 -24.69,11.99 -24.69,25.75l0 214.14 109.01 0c51.85,0 87.49,-23.28 87.49,-73.03zm-57.86 -99.83c0,20.11 -15.88,26.1 -35.28,26.1l-55.03 0 0 -51.5 54.33 0c22.22,0 35.98,5.29 35.98,25.4zm6 98.42c0,23.99 -14.82,31.05 -39.16,31.05l-57.15 0 0 -62.8 56.44 0c25.4,0 39.87,7.06 39.87,31.75zm70.73 -75.45l0 149.89 32.35 0 0 -135.57 34.33 135.57 35.06 0 34.33 -135.57 0 135.57 32.35 0 0 -167.92 -51.12 0 -32.84 127.92 -33.83 -127.92 -33.34 0c-9.63,0 -17.29,8.4 -17.29,18.03zm231.38 125.69c-10.37,0 -15.8,-4.94 -16.54,-15.31 0,-9.63 6.67,-15.8 19.75,-18.27 9.63,-1.98 18.52,-4.7 26.18,-7.91l0 12.1c0,18.52 -11.11,29.39 -29.39,29.39zm7.66 -81.49c13.58,0 20.49,3.7 21.24,11.11 0,7.16 -7.17,11.36 -21.24,13.09 -33.09,3.21 -55.81,11.61 -56.55,42.97 0,28.89 21.73,43.46 53.09,40.99 35.31,-2.47 57.04,-18.52 57.04,-54.57l0 -44.45c-0.74,-24.2 -19.01,-36.06 -55.06,-36.06 -30.13,0 -47.17,11.86 -51.12,36.06l32.84 0c1.73,-6.18 8.15,-9.14 19.76,-9.14zm180.76 105.69l0 -76.8c0.25,-37.29 -18.02,-55.81 -55.31,-55.81 -37.29,0 -56.06,18.52 -56.06,55.81l0 76.8 33.34 0 0 -83.47c0.25,-13.58 7.65,-20.24 22.22,-20.24 14.57,0 21.98,6.66 22.72,20.24l0 67.17c0,10.37 5.44,15.56 16.3,16.3l16.79 0zm60.75 -24.2c-10.37,0 -15.8,-4.94 -16.54,-15.31 0,-9.63 6.67,-15.8 19.75,-18.27 9.63,-1.98 18.52,-4.7 26.18,-7.91l0 12.1c0,18.52 -11.11,29.39 -29.39,29.39zm7.66 -81.49c13.58,0 20.49,3.7 21.24,11.11 0,7.16 -7.17,11.36 -21.24,13.09 -33.09,3.21 -55.81,11.61 -56.55,42.97 0,28.89 21.73,43.46 53.09,40.99 35.31,-2.47 57.04,-18.52 57.04,-54.57l0 -44.45c-0.74,-24.2 -19.01,-36.06 -55.06,-36.06 -30.13,0 -47.17,11.86 -51.12,36.06l32.84 0c1.73,-6.18 8.15,-9.14 19.76,-9.14zm128.66 79.27c-17.78,0 -26.67,-12.6 -27.41,-37.78 0,-26.43 9.13,-39.51 27.9,-39.51 18.77,0 27.91,13.08 27.66,39.51 -0.99,25.18 -10.37,37.78 -28.15,37.78zm-9.14 28.89c16.3,0 28.89,-6.42 37.29,-19.26 0,13.58 0,13.33 0,13.33 0,20.25 -8.89,30.38 -26.18,30.38 -13.58,0 -21.23,-4.45 -23.46,-13.83l-36.3 0c7.66,27.66 26.43,41.48 56.06,41.48 41.73,-0.74 62.48,-17.28 62.48,-50.13l0 -77.29c0,-39.26 -20.5,-58.52 -61.25,-58.28 -40.49,0.75 -60.74,22.48 -60.74,65.94 0,44.94 17.28,67.66 52.1,67.66zm200.51 -42.47l-24.2 0c-4.44,0 -8.15,1.48 -11.11,4.69 -6.42,6.17 -13.58,9.38 -21.24,9.38 -16.05,0 -24.69,-10.12 -25.92,-30.13l84.45 0c2.47,-51.11 -17.04,-76.55 -58.53,-76.55 -39.75,0.25 -59.75,22.47 -59.75,66.92 0,44.45 19.75,67.42 59.26,68.65 32.1,0 49.88,-15.31 57.04,-42.96zm-57.04 -65.69c14.08,0 22.23,8.89 24.2,26.18l-49.14 0c2.47,-17.29 10.87,-26.18 24.94,-26.18zm74.33 105.69l33.34 0 0 -67.91c0,-19.01 9.14,-28.64 27.41,-28.64l11.11 0 0 -34.08 -4.69 0c-43.71,0 -66.18,20.99 -67.17,63.22l0 67.41z"/>
 </g>
</svg>
